<svg viewBox="0 0 300 300" xmlns="http://www.w3.org/2000/svg">
  <path d="M 138.577 4.793 C 129.938 7.006 123.891 11.565 120.7 18.076 C 119.105 21.332 118.972 22.373 118.972 29.471 C 119.039 36.439 119.238 37.741 120.766 41.388 C 121.764 43.666 123.757 47.183 125.153 49.332 L 127.744 53.108 L 125.685 53.499 C 115.583 55.387 88.601 75.052 77.769 88.401 C 62.219 107.74 59.494 128.251 69.729 150 C 72.719 156.251 79.232 166.018 84.947 172.725 C 87.406 175.591 89.399 178.196 89.399 178.586 C 89.399 178.911 88.203 183.469 86.807 188.679 C 80.228 212.706 80.427 211.73 81.69 215.051 C 84.348 221.823 91.526 225.47 109.336 228.856 C 112.992 229.571 91.46 235.172 80.427 236.344 C 75.776 236.864 69.329 236.93 59.029 236.474 C 50.922 236.149 42.414 236.083 40.089 236.344 C 30.453 237.45 19.62 245.525 12.443 256.985 L 9.054 262.455 L 14.769 270.66 C 25.402 285.832 31.849 293.255 36.301 295.468 L 38.627 296.64 L 39.889 294.427 C 41.218 292.018 43.279 290.455 46.468 289.543 C 48.795 288.827 77.238 285.05 92.058 283.423 C 116.646 280.688 130.603 276.259 143.096 267.013 L 148.678 262.911 L 152.732 265.906 C 166.09 275.739 187.688 281.664 222.645 285.05 C 243.379 287.134 250.157 288.567 254.676 291.953 C 255.939 292.864 257.268 294.362 257.666 295.208 L 258.398 296.771 L 261.587 295.013 C 267.967 291.627 274.015 284.399 285.977 265.776 L 288.17 262.39 L 285.777 258.418 C 281.192 250.734 274.679 243.897 268.632 240.185 C 265.375 238.298 258.862 236.278 255.208 236.149 C 253.347 236.083 245.04 236.278 236.6 236.539 C 217.061 237.19 207.492 235.953 191.077 230.743 C 187.09 229.506 186.426 229.116 187.755 228.856 C 188.685 228.66 191.676 228.074 194.467 227.488 C 208.356 224.753 216.331 218.892 216.331 211.469 C 216.331 208.93 214.67 202.809 210.749 190.633 C 209.486 186.856 208.356 182.493 208.09 180.865 C 207.692 178 207.825 177.805 211.413 173.702 C 216.729 167.647 224.439 156.056 227.628 149.414 C 229.156 146.289 231.151 140.819 232.015 137.368 C 233.543 131.833 233.676 130.14 233.411 123.238 C 232.812 108.782 227.695 97.126 216.796 85.275 C 205.166 72.578 182.97 56.82 172.669 53.824 C 171.074 53.369 169.812 52.913 169.812 52.782 C 169.812 52.652 170.542 51.545 171.407 50.438 C 175.394 45.164 178.451 36.569 178.451 30.448 C 178.451 26.997 176.523 19.313 174.862 16.187 C 171.872 10.652 164.695 5.769 157.185 4.402 C 152.201 3.49 142.897 3.685 138.577 4.793 Z M 153.264 20.095 C 156.653 21.202 159.843 23.806 160.906 26.28 C 162.9 30.969 161.57 37.936 158.049 40.997 C 152.599 45.88 141.501 44.643 137.448 38.718 C 135.52 35.982 134.856 31.36 135.918 28.169 C 136.915 25.174 140.239 21.397 142.897 20.29 C 145.355 19.248 150.273 19.118 153.264 20.095 Z M 157.85 63.006 C 164.362 65.22 172.802 69.582 180.51 74.596 C 201.976 88.727 214.27 103.182 217.394 117.898 C 218.258 121.936 218.258 122.847 216.995 128.968 C 213.407 146.419 209.884 151.563 198.986 155.21 C 186.559 159.311 151.204 161.265 123.624 159.377 C 96.111 157.424 87.738 153.452 83.019 139.842 C 80.295 131.963 79.032 122.977 79.962 117.768 C 81.026 111.452 86.276 101.684 92.257 94.912 C 103.555 82.02 124.355 67.824 139.374 62.68 C 145.289 60.662 151.27 60.726 157.85 63.006 Z M 112.992 171.098 C 132.131 172.856 172.669 172.53 189.682 170.381 C 192.406 170.056 194.733 169.926 194.865 169.99 C 194.998 170.121 194.6 171.488 194.068 173.051 C 192.806 176.633 192.806 184.772 194.068 187.833 C 194.6 189.07 195.065 190.242 195.065 190.372 C 195.065 190.437 194.068 190.242 192.939 189.916 C 184.033 187.442 147.814 186.009 127.279 187.312 C 116.049 188.028 105.615 189.33 103.222 190.307 C 102.092 190.762 102.092 190.633 103.023 188.418 C 104.817 184.186 105.017 179.042 103.421 174.548 C 101.694 169.47 101.694 169.6 103.887 170.056 C 104.884 170.252 109.004 170.707 112.992 171.098 Z M 186.226 200.726 C 194.268 202.223 199.384 205.739 198.919 209.451 C 198.654 211.6 195.597 213.097 189.748 214.074 C 176.39 216.223 113.058 216.614 105.216 214.595 C 100.165 213.293 98.038 211.86 98.038 209.776 C 98.038 207.498 99.833 204.698 102.159 203.395 C 104.086 202.223 113.922 200.921 129.34 199.749 C 140.106 198.967 180.245 199.618 186.226 200.726 Z M 153.064 227.357 C 154.792 228.269 159.312 231.2 163.166 233.934 C 170.542 239.144 180.644 244.353 187.755 246.632 C 194.799 248.846 202.042 249.757 227.296 251.581 C 253.28 253.404 256.071 253.924 260.591 257.832 C 263.781 260.631 264.645 264.017 262.916 267.729 C 261.322 271.31 259.129 272.809 255.407 272.809 C 253.813 272.809 247.432 272.092 241.119 271.115 C 234.806 270.204 227.163 269.423 224.173 269.423 C 218.258 269.423 203.97 267.664 192.074 265.451 C 172.736 261.869 158.58 254.772 151.669 245.33 C 150.14 243.246 148.678 241.488 148.479 241.488 C 148.28 241.422 147.814 242.074 147.416 242.856 C 147.017 243.702 145.422 245.785 143.893 247.479 C 132.994 259.525 107.342 267.469 72.786 269.423 C 66.737 269.748 57.367 270.724 51.918 271.572 C 39.225 273.59 36.5 273.134 34.44 268.315 C 31.117 260.436 37.031 254.772 50.522 252.818 C 54.178 252.297 64.479 251.581 73.45 251.255 C 95.38 250.343 107.276 248.52 117.511 244.288 C 122.295 242.27 123.69 241.488 129.274 237.19 C 138.777 229.897 145.489 225.795 148.08 225.795 C 149.077 225.795 151.337 226.511 153.064 227.357 Z" style=""/>
  <path d="M 140.836 86.708 C 140.637 87.164 140.571 91.266 140.704 95.759 L 140.903 103.964 L 133.593 104.159 L 126.282 104.354 L 126.282 112.494 L 126.282 120.633 L 133.593 120.828 L 140.903 121.024 L 140.704 130.075 L 140.504 139.191 L 148.479 139.191 L 156.52 139.191 L 156.52 130.075 L 156.52 120.959 L 163.83 120.959 L 171.141 120.959 L 171.141 112.494 L 171.141 104.029 L 163.83 104.029 L 156.52 104.029 L 156.52 94.912 L 156.52 85.796 L 148.878 85.796 C 142.963 85.796 141.102 85.992 140.836 86.708 Z" style=""/>
</svg>