<?xml version="1.0" encoding="utf-8"?>
<svg viewBox="0 0 32 32" xmlns="http://www.w3.org/2000/svg">
  <path d="M 15.23 1.022 C 15.208 1.093 15.07 1.48 14.916 1.887 L 14.634 2.626 L 13.703 2.647 L 12.765 2.668 L 12.765 3.463 L 12.765 4.265 L 13.794 4.813 L 14.826 5.361 L 14.826 5.946 C 14.826 6.269 14.795 6.529 14.756 6.529 C 14.726 6.529 14.466 6.684 14.191 6.881 C 13.565 7.317 12.856 8.083 12.511 8.703 C 12.222 9.216 12.161 9.519 12.138 10.693 C 12.13 11.115 12.114 11.452 12.107 11.452 C 12.091 11.452 11.794 11.276 11.451 11.051 C 10.665 10.559 9.641 10.116 8.794 9.905 C 7.977 9.694 6.601 9.673 5.784 9.856 C 4.671 10.109 3.745 10.545 2.959 11.178 C 2.317 11.691 1.974 12.092 1.624 12.718 C 1.158 13.548 1.043 14.061 1.043 15.25 C 1.05 16.136 1.073 16.326 1.227 16.727 C 1.51 17.452 1.944 18.162 2.814 19.294 C 4.426 21.411 4.762 21.959 5.159 23.119 C 5.556 24.287 5.8 25.588 5.968 27.417 C 6.029 28.113 6.09 28.373 6.243 28.661 C 6.808 29.731 8.525 30.406 11.641 30.771 C 13.115 30.947 18.988 30.947 20.467 30.771 C 23.218 30.448 24.943 29.843 25.63 28.971 C 25.966 28.549 26.028 28.296 26.126 27.03 C 26.279 25.025 26.699 23.246 27.287 22.156 C 27.57 21.628 27.875 21.178 29.501 18.97 C 31.014 16.896 31.38 15.278 30.746 13.443 C 30.272 12.057 29.098 10.904 27.47 10.222 C 26.524 9.821 25.997 9.729 24.714 9.736 C 23.638 9.736 23.522 9.75 22.843 9.961 C 22.042 10.208 21.133 10.658 20.453 11.136 C 20.216 11.312 20.003 11.452 19.98 11.452 C 19.956 11.452 19.942 11.206 19.942 10.904 C 19.942 9.898 19.804 9.061 19.567 8.604 C 19.3 8.063 18.644 7.415 17.826 6.867 L 17.184 6.438 L 17.208 5.91 L 17.231 5.376 L 18.246 4.827 L 19.254 4.271 L 19.254 3.47 L 19.254 2.661 L 18.346 2.661 L 17.444 2.661 L 17.322 2.359 C 17.254 2.197 17.1 1.803 16.986 1.487 L 16.772 0.903 L 16.024 0.903 C 15.367 0.903 15.262 0.917 15.23 1.022 Z M 16.925 8.323 C 17.682 8.611 18.102 9.56 18.109 10.967 C 18.109 12.219 17.866 12.894 16.842 14.384 C 16.474 14.92 16.146 15.391 16.108 15.44 C 15.955 15.615 14.512 13.415 14.176 12.501 C 14.008 12.043 13.978 11.86 13.978 11.03 C 13.978 9.497 14.275 8.766 15.062 8.386 C 15.558 8.147 16.391 8.118 16.925 8.323 Z M 8.382 11.523 C 9.588 11.804 10.908 12.571 12.161 13.703 C 13.267 14.708 13.848 15.51 14.398 16.783 C 14.726 17.542 15.04 18.753 15.07 19.399 L 15.092 19.857 L 14.826 19.976 C 13.824 20.419 11.473 20.687 7.755 20.771 L 6.059 20.806 L 5.182 19.73 C 3.577 17.775 2.952 16.699 2.8 15.672 C 2.73 15.208 3.005 14.012 3.311 13.443 C 3.617 12.866 4.174 12.296 4.692 12.029 C 5.037 11.846 5.992 11.53 6.465 11.431 C 6.869 11.347 7.816 11.389 8.382 11.523 Z M 26.004 11.495 C 26.714 11.663 27.371 11.994 27.922 12.451 C 28.806 13.204 29.256 14.174 29.256 15.355 C 29.256 16.495 28.846 17.29 27.203 19.301 L 25.997 20.771 L 24.287 20.75 C 21.277 20.714 19.116 20.538 18.07 20.236 C 17.444 20.06 16.986 19.857 16.948 19.737 C 16.91 19.646 17.056 18.71 17.184 18.168 C 17.536 16.755 18.246 15.405 19.194 14.392 C 20.568 12.915 22.492 11.72 23.95 11.452 C 24.478 11.354 25.507 11.375 26.004 11.495 Z M 16.436 21.763 C 17.117 21.98 17.85 22.065 21.354 22.318 C 23.332 22.458 24.988 22.592 25.036 22.606 C 25.103 22.62 25.11 22.677 25.057 22.804 C 24.874 23.26 24.523 25.286 24.523 25.933 C 24.523 26.425 24.478 26.453 23.912 26.291 C 20.658 25.384 14.557 25.18 10.359 25.835 C 9.748 25.933 7.945 26.313 7.702 26.404 C 7.632 26.425 7.572 26.144 7.473 25.363 C 7.357 24.442 7.259 23.914 6.99 22.754 L 6.946 22.564 L 7.387 22.564 C 7.968 22.564 11.412 22.318 12.84 22.178 C 14.116 22.051 15.101 21.903 15.589 21.763 C 16.039 21.628 16.048 21.628 16.436 21.763 Z M 19.063 27.346 C 21.079 27.473 22.278 27.719 22.705 28.099 C 23.148 28.493 22.835 28.739 21.606 28.964 C 20.5 29.168 19.399 29.252 17.002 29.295 C 12.816 29.372 9.366 29.027 9.153 28.521 C 9.083 28.345 9.282 28.099 9.625 27.937 C 10.191 27.677 11.512 27.473 13.412 27.354 C 14.665 27.269 17.758 27.269 19.063 27.346 Z" style="paint-order: fill markers; fill: rgb(255, 255, 68); stroke: rgb(255, 219, 125);"/>
</svg>