<svg viewBox="0 0 300 300" xmlns="http://www.w3.org/2000/svg">
  <path d="M 142.02 5.974 C 141.824 6.641 140.646 10.311 139.337 14.182 L 136.917 21.189 L 128.936 21.388 L 120.89 21.589 L 120.89 29.13 L 120.89 36.737 L 129.721 41.942 L 138.552 47.147 L 138.552 52.686 C 138.552 55.756 138.291 58.224 137.964 58.224 C 137.702 58.224 135.478 59.693 133.123 61.561 C 127.758 65.699 121.675 72.972 118.731 78.845 C 116.245 83.717 115.722 86.586 115.525 97.73 C 115.461 101.735 115.329 104.937 115.265 104.937 C 115.133 104.937 112.582 103.268 109.637 101.133 C 102.9 96.462 94.134 92.257 86.872 90.255 C 79.873 88.254 68.097 88.054 61.098 89.789 C 51.547 92.191 43.631 96.329 36.893 102.334 C 31.398 107.205 28.453 111.009 25.445 116.948 C 21.455 124.822 20.473 129.694 20.473 140.972 C 20.539 149.381 20.735 151.182 22.043 154.986 C 24.464 161.86 28.192 168.599 35.65 179.344 C 49.453 199.429 52.332 204.634 55.733 215.645 C 59.135 226.723 61.228 239.068 62.668 256.418 C 63.191 263.025 63.715 265.494 65.023 268.23 C 69.864 278.373 84.583 284.78 111.273 288.249 C 123.899 289.917 174.205 289.917 186.897 288.249 C 210.447 285.18 225.232 279.441 231.119 271.166 C 233.997 267.162 234.521 264.76 235.371 252.749 C 236.68 233.729 240.278 216.846 245.316 206.503 C 247.735 201.497 250.351 197.227 264.287 176.274 C 277.239 156.587 280.379 141.239 274.95 123.822 C 270.893 110.676 260.819 99.732 246.885 93.259 C 238.773 89.455 234.259 88.588 223.27 88.654 C 214.045 88.654 213.063 88.789 207.242 90.791 C 200.373 93.126 192.588 97.396 186.766 101.934 C 184.738 103.602 182.907 104.937 182.709 104.937 C 182.513 104.937 182.383 102.602 182.383 99.732 C 182.383 90.189 181.205 82.248 179.177 77.911 C 176.888 72.773 171.262 66.633 164.262 61.428 L 158.766 57.357 L 158.962 52.352 L 159.159 47.28 L 167.86 42.076 L 176.496 36.803 L 176.496 29.197 L 176.496 21.521 L 168.71 21.521 L 160.991 21.521 L 159.944 18.652 C 159.356 17.118 158.047 13.381 157.066 10.377 L 155.234 4.839 L 148.823 4.839 C 143.198 4.839 142.282 4.972 142.02 5.974 Z M 156.543 75.241 C 163.019 77.977 166.617 86.986 166.683 100.332 C 166.683 112.21 164.59 118.617 155.824 132.763 C 152.683 137.835 149.87 142.307 149.542 142.774 C 148.234 144.442 135.871 123.555 132.992 114.88 C 131.553 110.543 131.291 108.807 131.291 100.932 C 131.291 86.385 133.842 79.446 140.581 75.843 C 144.833 73.573 151.963 73.306 156.543 75.241 Z M 83.34 105.604 C 93.677 108.273 104.994 115.548 115.722 126.291 C 125.208 135.833 130.179 143.442 134.89 155.52 C 137.702 162.727 140.384 174.205 140.646 180.344 L 140.842 184.682 L 138.552 185.816 C 129.983 190.02 109.833 192.556 77.975 193.357 L 63.453 193.69 L 55.93 183.481 C 42.191 164.929 36.827 154.718 35.52 144.976 C 34.931 140.572 37.285 129.227 39.902 123.822 C 42.519 118.35 47.294 112.944 51.743 110.409 C 54.687 108.674 62.864 105.672 66.919 104.737 C 70.387 103.935 78.498 104.336 83.34 105.604 Z M 234.325 105.338 C 240.408 106.939 246.035 110.075 250.745 114.413 C 258.334 121.554 262.192 130.761 262.192 141.973 C 262.192 152.783 258.66 160.325 244.596 179.409 L 234.259 193.357 L 219.605 193.157 C 193.832 192.823 175.318 191.155 166.355 188.286 C 160.991 186.616 157.066 184.682 156.74 183.547 C 156.412 182.679 157.655 173.804 158.766 168.666 C 161.776 155.253 167.86 142.441 175.972 132.831 C 187.747 118.817 204.233 107.473 216.728 104.937 C 221.241 104.002 230.072 104.203 234.325 105.338 Z M 152.356 202.766 C 158.178 204.835 164.458 205.635 194.486 208.038 C 211.428 209.372 225.625 210.641 226.017 210.774 C 226.605 210.907 226.671 211.441 226.213 212.643 C 224.643 216.98 221.633 236.199 221.633 242.338 C 221.633 247.01 221.241 247.276 216.4 245.742 C 188.532 237.132 136.263 235.197 100.283 241.404 C 95.05 242.338 79.611 245.942 77.518 246.81 C 76.928 247.01 76.405 244.339 75.556 236.934 C 74.574 228.19 73.724 223.186 71.433 212.175 L 71.041 210.373 L 74.836 210.373 C 79.807 210.373 109.311 208.038 121.544 206.704 C 132.469 205.502 140.908 204.101 145.095 202.766 C 148.954 201.497 149.019 201.497 152.356 202.766 Z M 174.859 255.751 C 192.13 256.952 202.4 259.287 206.064 262.891 C 209.858 266.629 207.176 268.964 196.645 271.099 C 187.159 273.034 177.738 273.836 157.197 274.235 C 121.348 274.969 91.779 271.7 89.947 266.895 C 89.358 265.226 91.06 262.891 94.003 261.357 C 98.844 258.888 110.161 256.952 126.45 255.819 C 137.179 255.017 163.674 255.017 174.859 255.751 Z"/>
</svg>