<svg viewBox="0 0 300 300" xmlns="http://www.w3.org/2000/svg">
  <path fill="currentColor" d="M 138.327 8.034 C 127.064 10.424 114.471 18.711 109.856 26.848 C 103.677 37.672 104.069 52.604 110.795 66.562 C 112.125 69.175 113.143 71.49 113.143 71.788 C 113.143 72.087 111.968 72.759 110.482 73.206 C 102.739 75.894 90.771 85.524 85.845 93.139 C 80.056 101.873 77.552 116.356 79.821 127.255 C 83.029 142.783 90.771 153.981 102.035 159.356 L 106.963 161.67 L 102.817 163.91 C 77.005 177.72 63.317 190.114 53.383 208.403 C 46.5 221.093 42.043 236.92 40.478 254.538 C 39.54 264.542 39.304 283.206 40.088 288.654 L 40.634 292.09 L 148.81 292.09 L 256.983 292.09 L 257.53 289.401 C 257.844 287.909 257.844 278.576 257.609 268.648 C 256.906 237.443 252.056 219.079 240.088 201.835 C 230.468 188.098 215.217 175.331 196.208 165.104 L 189.717 161.596 L 192.688 160.476 C 197.224 158.759 204.97 153.009 208.488 148.756 C 215.606 140.171 218.343 131.585 218.343 118.148 C 218.265 103.74 214.432 94.109 205.205 85.375 C 199.571 80.075 196.286 77.835 188.934 74.402 L 183.537 71.862 L 185.806 67.907 C 190.029 60.814 192.375 52.827 192.454 45.362 C 192.531 37.15 190.89 31.699 186.51 25.13 C 177.123 10.797 157.882 4.003 138.327 8.034 Z M 157.412 25.206 C 162.653 27.296 166.408 30.206 168.755 34.163 C 170.71 37.374 171.022 38.717 171.022 43.495 C 171.022 48.497 170.71 49.616 168.284 53.946 C 162.888 63.501 162.107 65.443 161.793 70.37 C 161.48 74.85 161.636 75.371 163.592 77.238 C 164.765 78.358 169.302 81.568 173.604 84.33 C 183.537 90.526 189.481 96.2 192.688 102.47 C 195.974 108.966 197.146 115.236 196.6 123.15 C 195.739 134.422 191.828 139.798 178.139 148.383 C 169.615 153.757 167.112 156.296 167.112 159.879 C 167.112 166.224 173.604 172.571 189.169 181.527 C 207.628 192.054 220.534 204.522 228.355 219.303 C 233.753 229.53 237.899 245.431 238.68 259.018 C 238.915 263.049 239.306 267.753 239.463 269.469 L 239.853 272.679 L 149.122 272.679 L 58.39 272.679 L 58.39 265.737 C 58.39 257.376 60.033 245.281 62.223 237.144 C 68.245 214.749 81.62 198.549 107.979 181.751 C 114.785 177.347 121.981 172.347 123.857 170.554 C 127.847 166.895 130.74 161.446 130.037 158.834 C 129.332 156.072 125.813 152.637 119.399 148.308 C 108.997 141.365 104.226 135.468 101.801 126.584 C 99.375 117.625 101.409 107.174 107.275 98.739 C 111.264 92.99 115.253 89.555 124.874 83.658 C 134.416 77.686 135.433 76.492 135.433 70.892 C 135.355 66.936 134.809 65.145 131.758 58.799 C 124.797 44.69 124.483 42.525 127.925 35.656 C 132.226 26.996 139.422 22.965 149.201 23.637 C 152.095 23.861 155.77 24.533 157.412 25.206 Z" />
</svg>