<svg viewBox="0 0 300 300" xmlns="http://www.w3.org/2000/svg">
  <path d="M 144.528 5.712 C 134.743 9.227 129.079 15.707 127.404 25.219 C 126.568 29.977 126.761 31.287 129.658 39.489 C 136.803 59.962 137.448 77.195 132.232 109.181 C 130.173 121.934 127.212 137.168 126.826 137.168 C 126.632 137.168 124.251 131.584 121.483 124.759 C 111.763 100.84 106.548 82.918 104.874 68.028 C 104.294 62.444 104.36 60.306 105.582 51.346 C 107.192 39.489 106.999 37.215 104.038 30.596 C 100.11 21.91 93.867 17.292 85.241 16.672 C 74.298 15.914 63.677 23.152 60.844 33.216 C 59.62 37.834 59.62 45.624 60.908 50.243 C 61.745 53.344 62.839 54.931 67.603 60.031 C 74.941 67.89 76.293 70.647 77.903 82.021 C 79.189 91.189 78.225 132.48 76.679 135.651 C 76.357 136.271 74.748 134.824 71.594 131.033 C 64.063 122.14 58.075 113.179 54.729 105.803 C 49.836 94.981 49.45 91.878 51.252 77.61 C 52.604 66.305 51.446 61.272 45.911 53.896 C 35.997 40.799 14.883 43.97 7.673 59.618 C 4.389 66.856 4.454 75.679 7.866 82.987 C 9.797 87.053 15.269 92.844 19.968 95.877 L 24.217 98.565 L 25.054 105.597 C 26.018 114.282 29.817 134.963 33.872 153.367 C 35.481 160.95 37.67 170.876 38.636 175.494 C 39.602 180.045 40.825 184.664 41.403 185.835 C 41.918 186.937 47.068 193.556 52.798 200.587 C 64.32 214.649 66.252 217.406 68.697 223.059 C 71.207 228.918 70.63 233.192 66.122 243.74 C 60.716 256.354 59.75 260.215 59.363 270.072 L 59.107 278.483 L 61.423 280.825 C 68.441 287.925 91.421 291.992 134.743 293.717 C 169.504 295.096 205.939 292.614 225.315 287.65 C 231.108 286.203 238.576 282.273 239.928 280.068 C 240.893 278.551 241.087 276.621 241.021 269.589 L 241.021 260.904 L 237.932 253.666 C 232.139 240.086 229.757 233.675 229.692 231.469 C 229.434 223.611 233.296 217.062 249.262 198.243 C 258.853 186.87 259.433 185.56 263.295 168.74 C 269.797 140.201 275.525 109.319 275.525 102.494 C 275.525 98.841 275.783 98.565 279.968 96.084 C 288.464 91.189 293.743 83.331 294.901 73.818 C 295.416 69.406 295.288 68.303 293.807 63.27 C 292.262 58.17 291.682 57.136 287.82 53 C 282.67 47.485 279.002 45.899 271.663 45.831 C 267.543 45.831 266.191 46.175 262.522 48.037 C 254.476 52.105 249.454 58.998 248.682 67.062 C 248.49 69.199 248.811 74.99 249.454 80.16 C 250.485 88.914 250.485 89.812 249.519 94.498 C 247.524 104.08 240.829 115.867 229.564 129.585 C 225.637 134.341 223.641 136.271 223.385 135.651 C 222.483 133.859 221.26 106.907 221.582 96.152 C 222.161 78.92 225.315 68.785 232.91 59.894 C 238.962 52.862 239.799 50.657 239.799 42.039 C 239.799 35.422 239.669 34.456 237.932 31.011 C 234.907 24.806 232.139 21.635 227.375 19.153 C 223.448 17.086 222.611 16.88 216.946 16.88 C 211.539 16.88 210.38 17.086 207.227 18.809 C 199.052 23.083 194.481 29.838 193.966 38.455 C 193.772 41.006 194.094 46.383 194.674 50.518 C 196.733 65.408 195.381 77.058 189.202 96.635 C 185.534 108.286 175.362 134.755 173.817 136.686 C 173.237 137.375 171.95 131.516 168.989 114.764 C 162.424 77.678 162.81 62.995 170.856 38.937 C 173.431 31.217 173.624 29.286 172.144 23.152 C 170.341 15.501 165.965 9.641 160.041 6.814 C 156.115 5.022 148.197 4.402 144.528 5.712 Z M 155.793 19.153 C 158.69 20.67 160.299 24.117 160.299 28.804 C 160.299 36.456 157.144 39.972 150.321 39.972 C 143.305 39.972 140.215 36.387 140.215 28.391 C 140.215 25.081 140.472 23.496 141.438 22.187 C 143.241 19.497 146.587 17.913 150.321 17.913 C 152.123 17.913 154.57 18.465 155.793 19.153 Z M 89.489 33.009 C 94.639 36.939 94.575 47.829 89.361 51.897 C 86.787 53.965 81.958 54.24 78.353 52.518 C 74.555 50.725 73.268 48.037 73.268 42.316 C 73.268 36.111 75.264 32.941 80.155 31.631 C 82.924 30.872 87.623 31.562 89.489 33.009 Z M 223.061 33.009 C 226.023 34.802 227.375 38.179 227.117 43.211 C 226.732 49.898 223.898 53 217.59 53.552 C 213.857 53.965 209.543 51.621 207.87 48.244 C 205.489 43.555 206.776 36.317 210.445 33.285 C 213.341 30.872 219.328 30.735 223.061 33.009 Z M 33.808 61.685 C 38.506 64.58 39.988 70.923 37.413 76.989 C 35.803 80.642 33.422 82.021 28.465 82.021 C 21.706 82.021 18.358 78.229 18.358 70.509 C 18.358 67.269 18.681 65.753 19.71 64.305 C 22.735 59.824 29.044 58.652 33.808 61.685 Z M 276.748 61.204 C 280.353 63.133 281.641 65.546 281.641 70.509 C 281.641 75.61 280.546 78.299 277.52 80.435 C 273.336 83.469 266.062 82.09 263.037 77.747 C 261.042 74.783 260.912 68.579 262.779 65.202 C 265.484 60.306 271.857 58.445 276.748 61.204 Z M 94.704 91.466 C 97.279 99.875 103.587 116.35 107.257 124.278 C 112.084 134.617 115.174 139.512 122.641 148.748 L 128.886 156.538 L 132.811 149.783 C 140.15 136.961 144.657 122.417 148.776 98.428 C 149.548 93.602 150.386 89.741 150.514 89.879 C 150.644 90.087 152.317 97.394 154.184 106.285 C 157.724 122.761 160.685 134.273 162.359 138.547 C 162.939 139.857 165.255 144.474 167.508 148.748 L 171.692 156.47 L 177.679 148.888 C 186.047 138.34 189.395 132.826 194.609 121.314 C 199.566 110.284 200.274 108.354 204.78 95.463 L 207.87 86.502 L 207.484 95.118 C 207.034 105.182 208.064 120.485 210.188 136.479 C 211.797 147.99 214.179 162.673 214.564 163.156 C 214.95 163.57 224.221 156.401 229.564 151.575 C 236.13 145.716 245.592 134.892 252.352 125.588 C 255.956 120.555 257.501 118.9 257.501 119.934 C 257.501 122.898 251.708 152.264 249.519 160.399 C 247.265 168.809 244.305 176.116 242.503 177.702 C 241.794 178.39 240.121 177.77 234.069 174.737 C 216.689 165.845 196.283 160.536 172.014 158.469 C 158.947 157.296 127.598 158.124 116.204 159.847 C 94.769 163.088 76.357 168.809 63.805 176.185 C 59.943 178.458 59.62 178.529 58.205 177.495 C 54.664 175.012 51.317 163.57 45.781 134.755 C 44.687 129.033 43.463 123.174 43.142 121.658 C 42.82 120.21 42.626 118.831 42.756 118.694 C 42.884 118.625 45.459 121.865 48.42 125.932 C 58.913 140.132 70.243 151.852 81.378 159.847 C 86.978 163.914 86.271 164.742 88.137 151.989 C 92 125.794 93.61 108.215 93.224 95.808 C 93.095 90.914 93.03 86.847 93.095 86.847 C 93.16 86.847 93.867 88.914 94.704 91.466 Z M 172.658 175.426 C 207.87 178.598 223.963 184.181 223.255 192.936 C 222.933 196.796 221.774 196.933 194.931 195.141 C 165.191 193.28 143.884 193.28 108.479 195.141 C 77.645 196.796 77.259 196.796 77.259 192.798 C 77.259 191.556 77.71 189.902 78.225 189.006 C 82.023 183.284 102.685 177.081 124.573 175.15 C 135.645 174.185 160.171 174.324 172.658 175.426 Z M 184.76 210.307 C 195.189 210.996 213.663 212.788 216.11 213.339 L 217.525 213.685 L 215.981 216.649 C 213.02 222.232 212.312 235.673 214.693 239.672 C 215.852 241.464 215.916 241.464 210.831 240.569 C 203.106 239.19 190.168 237.881 176.521 237.053 C 152.189 235.673 109.51 237.122 93.673 239.879 C 91.549 240.292 88.911 240.776 87.816 240.913 L 85.756 241.257 L 86.657 238.707 C 88.524 232.985 87.3 220.233 84.404 215.89 L 82.988 213.753 L 84.469 213.408 C 86.528 212.926 96.699 211.754 106.419 210.859 C 127.34 208.927 160.942 208.721 184.76 210.307 Z M 193.708 253.942 C 206.454 255.596 213.084 257.389 215.981 260.077 C 218.685 262.626 219.135 265.246 217.268 267.452 C 214.758 270.416 205.553 272.761 189.588 274.484 C 178.903 275.656 122.899 275.656 111.441 274.484 C 90.712 272.347 82.409 269.383 82.409 264.143 C 82.409 262.007 84.598 259.387 87.944 257.596 C 90.971 255.941 99.66 254.494 111.376 253.666 C 117.234 253.252 123.286 252.84 124.895 252.7 C 126.504 252.563 140.666 252.563 156.437 252.632 C 177.679 252.769 187.335 253.115 193.708 253.942 Z" style=""/>
</svg>