<svg viewBox="0 0 300 300" xmlns="http://www.w3.org/2000/svg">
  <path fill="currentColor" d="M 41.205 9.474 L 34.32 16.127 L 34.394 39.072 L 34.394 62.017 L 55.494 81.061 L 76.593 100.029 L 76.593 149.895 L 76.593 199.686 L 52.162 224.925 L 27.731 250.164 L 27.731 267.755 L 27.731 285.422 L 32.025 289.782 L 36.319 294.142 L 148.108 294.142 L 259.899 294.142 L 264.489 289.323 L 269.079 284.505 L 269.079 267.602 L 269.079 250.699 L 244.648 225.154 L 220.291 199.686 L 220.291 149.59 L 220.291 99.494 L 241.39 80.526 L 262.416 61.635 L 262.416 39.225 L 262.416 16.892 L 255.531 9.779 L 248.72 2.743 L 226.88 2.743 L 205.04 2.743 L 200.82 6.643 L 196.526 10.545 L 196.526 17.351 L 196.526 24.159 L 189.864 24.159 L 183.2 24.159 L 183.2 17.887 L 183.2 11.615 L 178.981 7.179 L 174.761 2.743 L 148.035 2.743 L 121.309 2.743 L 117.46 6.796 L 113.61 10.85 L 113.61 17.504 L 113.61 24.159 L 106.576 24.159 L 99.543 24.159 L 99.543 17.428 L 99.543 10.697 L 95.619 6.72 L 91.695 2.743 L 69.93 2.743 L 48.09 2.82 L 41.205 9.474 Z M 83.996 29.283 L 83.996 35.936 L 87.476 39.608 L 90.955 43.278 L 106.946 43.278 L 122.863 43.278 L 126.417 39.761 L 129.896 36.319 L 129.896 29.818 L 129.896 23.393 L 148.035 23.393 L 166.173 23.393 L 166.173 29.818 L 166.173 36.242 L 169.949 39.761 L 173.724 43.278 L 189.419 43.278 L 205.04 43.202 L 208.594 39.837 L 212.074 36.549 L 212.074 29.588 L 212.074 22.628 L 225.621 22.628 L 239.169 22.628 L 242.279 25.917 L 245.388 29.206 L 245.388 43.278 L 245.388 57.428 L 229.027 70.966 L 212.666 84.579 L 148.183 84.579 L 83.626 84.503 L 67.19 70.736 L 50.681 56.969 L 50.681 43.585 L 50.681 30.2 L 53.791 26.376 L 56.826 22.628 L 70.448 22.628 L 83.996 22.628 L 83.996 29.283 Z M 203.189 145.383 L 203.189 189.361 L 148.405 189.361 L 93.621 189.361 L 93.621 145.383 L 93.621 101.406 L 148.405 101.406 L 203.189 101.406 L 203.189 145.383 Z M 219.699 220.489 C 227.546 228.289 234.579 235.327 235.394 236.168 C 236.8 237.545 234.431 237.545 148.405 237.545 L 59.936 237.468 L 75.482 221.866 L 91.029 206.263 L 148.257 206.187 L 205.484 206.187 L 219.699 220.489 Z M 252.051 264.696 L 252.051 274.256 L 148.035 274.256 L 44.019 274.256 L 44.019 264.696 L 44.019 255.135 L 148.035 255.135 L 252.051 255.135 L 252.051 264.696 Z" />
</svg>